{"title":"Dusk *2010* [DVDRip.XviD-miguel] [ENG]","uid":6379305,"size":743007094,"categoryP":"video","categoryS":"movies","magnet":"?xt=urn:btih:fa8ccb65b4c9a57e3b10c0a6fb1f6cf9ba722f54&amp;dn=Dusk+%2A2010%2A+%5BDVDRip.XviD-miguel%5D+%5BENG%5D&amp;tr=udp%3A%2F%2Ftracker.openbittorrent.com%3A80&amp;tr=udp%3A%2F%2Fopen.demonii.com%3A1337&amp;tr=udp%3A%2F%2Ftracker.coppersurfer.tk%3A6969&amp;tr=udp%3A%2F%2Fexodus.desync.com%3A6969","seeders":0,"leechers":1,"uploader":"miguel1983","files":-1,"time":1304972286,"description":" &lt;a href=&quot;http://img802.imageshack.us/img802/5622/916823429.jpg&quot; rel=&quot;nofollow&quot; target=&quot;_NEW&quot;&gt;http://img802.imageshack.us/img802/5622/916823429.jpg&lt;/a&gt;\n\nCountry.......: Netherlands\nGenre.........: Drama\nDate release..: 18.09.2010 [World]\nDirector......: Hanro Smitsman\nWriters.......: Anjet Daanje\nDuration......: 88 min.\nMore..........: http://www.imdb.com/title/tt1467061\nTrailer.......:\n\nPilot :\nThe haunting search to discover why fifteen-year old Jessie was murdered by her closest friends. \n\nCats :\nMatthijs van de Sande Bakhuyzen   \t ...  \tCaesar\nGaite Jansen \t... \tJessie\nRoos Netjes \t... \tIlse\nRobert de Hoog \t... \tMick\nGerson Oratmangoen \t... \tRico\nMelody Klaver \t... \tFrauk\nRoos Ouwehand \t... \tAnna\nMarie Louise Stheins \t... \tLia\nFinn Poncin \t... \tTom \n\nData Technical :\n!!! SAMPLE !!!\nAudio.....: Dutch\nSubtitles.: English .srt, English .sub\nFormat                           : AVI\nFormat/Info                      : Audio Video Interleave\nFile size                        : 699 MiB\nDuration                         : 1h 28mn\nOverall bit rate                 : 1 105 Kbps\nWriting application              : VirtualDubMod 1.5.10.2 (build 2540/release)\nWriting library                  : VirtualDubMod build 2540/release\nVideo\nID                               : 0\nFormat                           : MPEG-4 Visual\nFormat profile                   : Advanced Simple@L5\nFormat settings, BVOP            : Yes\nFormat settings, QPel            : No\nFormat settings, GMC             : No warppoints\nFormat settings, Matrix          : Default (H.263)\nMuxing mode                      : Packed bitstream\nCodec ID                         : XVID\nCodec ID/Hint                    : XviD\nDuration                         : 1h 28mn\nBit rate                         : 903 Kbps\nWidth                            : 640 pixels\nHeight                           : 336 pixels\nDisplay aspect ratio             : 1.905\nFrame rate                       : 25.000 fps\nColor space                      : YUV\nChroma subsampling               : 4:2:0\nBit depth                        : 8 bits\nScan type                        : Progressive\nBits/(Pixel*Frame)               : 0.168\nStream size                      : 571 MiB (82%)\nWriting library                  : XviD 62\nAudio\nID                               : 1\nFormat                           : AC-3\nFormat/Info                      : Audio Coding 3\nMode extension                   : CM (complete main)\nCodec ID                         : 2000\nDuration                         : 1h 28mn\nBit rate mode                    : Constant\nBit rate                         : 192 Kbps\nChannel(s)                       : 2 channels\nChannel positions                : Front: L R\nSampling rate                    : 48.0 KHz\nBit depth                        : 16 bits\nStream size                      : 121 MiB (17%)\nAlignment                        : Split accross interleaves\nInterleave, duration             : 40 ms (1.00 video frame)\nInterleave, preload duration     : 500 ms\n\nScreen : &lt;a href=&quot;\nhttp://img156.imageshack.us/img156/2456/dusk2010s1.jpg&quot; rel=&quot;nofollow&quot; target=&quot;_NEW&quot;&gt;\nhttp://img156.imageshack.us/img156/2456/dusk2010s1.jpg&lt;/a&gt; &lt;a href=&quot;\nhttp://img852.imageshack.us/img852/2241/dusk2010s2.jpg&quot; rel=&quot;nofollow&quot; target=&quot;_NEW&quot;&gt;\nhttp://img852.imageshack.us/img852/2241/dusk2010s2.jpg&lt;/a&gt; &lt;a href=&quot;\nhttp://img803.imageshack.us/img803/3392/dusk2010s3.jpg&quot; rel=&quot;nofollow&quot; target=&quot;_NEW&quot;&gt;\nhttp://img803.imageshack.us/img803/3392/dusk2010s3.jpg&lt;/a&gt; &lt;a href=&quot;\nhttp://img84.imageshack.us/img84/4294/dusk2010s4.jpg&quot; rel=&quot;nofollow&quot; target=&quot;_NEW&quot;&gt;\nhttp://img84.imageshack.us/img84/4294/dusk2010s4.jpg&lt;/a&gt; &lt;a href=&quot;\nhttp://img189.imageshack.us/img189/4499/dusk2010s5.jpg&quot; rel=&quot;nofollow&quot; target=&quot;_NEW&quot;&gt;\nhttp://img189.imageshack.us/img189/4499/dusk2010s5.jpg&lt;/a&gt;","torrent":{"xt":"urn:btih:fa8ccb65b4c9a57e3b10c0a6fb1f6cf9ba722f54","amp;dn":"Dusk+%2A2010%2A+%5BDVDRip.XviD-miguel%5D+%5BENG%5D","amp;tr":["udp%3A%2F%2Ftracker.openbittorrent.com%3A80","udp%3A%2F%2Fopen.demonii.com%3A1337","udp%3A%2F%2Ftracker.coppersurfer.tk%3A6969","udp%3A%2F%2Fexodus.desync.com%3A6969"],"infoHash":"fa8ccb65b4c9a57e3b10c0a6fb1f6cf9ba722f54","infoHashBuffer":{"type":"Buffer","data":[250,140,203,101,180,201,165,126,59,16,192,166,251,31,108,249,186,114,47,84]},"announce":[],"urlList":[]}}